<svg width="278" height="164" viewBox="0 0 278 164" fill="none" xmlns="http://www.w3.org/2000/svg">
<path d="M20.6225 42.4316L139 2.11282L257.378 42.4316V121.568L139 161.887L20.6225 121.568V42.4316Z" fill="white" fill-opacity="0.3" stroke="black" stroke-width="4"/>
<line x1="46" y1="52" x2="231" y2="52" stroke="black" stroke-width="2"/>
<line x1="46" y1="113" x2="231" y2="113" stroke="black" stroke-width="2"/>
<path d="M100.5 125L102.184 130.182H107.633L103.225 133.385L104.908 138.568L100.5 135.365L96.0916 138.568L97.7755 133.385L93.3671 130.182H98.8161L100.5 125Z" fill="black"/>
<path d="M138.5 125L140.633 131.564H147.535L141.951 135.621L144.084 142.186L138.5 138.129L132.916 142.186L135.049 135.621L129.465 131.564H136.367L138.5 125Z" fill="black"/>
<path d="M176.5 125L178.184 130.182H183.633L179.225 133.385L180.908 138.568L176.5 135.365L172.092 138.568L173.775 133.385L169.367 130.182H174.816L176.5 125Z" fill="black"/>
<path d="M65.768 101.432C61.928 101.432 59.224 100.296 57.656 98.024C56.088 95.72 55.304 92.552 55.304 88.52V74.792C55.304 70.536 56.072 67.304 57.608 65.096C59.144 62.888 61.864 61.784 65.768 61.784C69.256 61.784 71.752 62.728 73.256 64.616C74.792 66.504 75.56 69.288 75.56 72.968V76.04H70.424V73.304C70.424 71.512 70.344 70.136 70.184 69.176C70.024 68.216 69.608 67.448 68.936 66.872C68.296 66.296 67.256 66.008 65.816 66.008C64.344 66.008 63.24 66.328 62.504 66.968C61.8 67.576 61.336 68.44 61.112 69.56C60.888 70.648 60.776 72.12 60.776 73.976V89.384C60.776 91.368 60.936 92.92 61.256 94.04C61.576 95.16 62.088 95.96 62.792 96.44C63.528 96.92 64.536 97.16 65.816 97.16C67.192 97.16 68.216 96.856 68.888 96.248C69.56 95.64 69.976 94.808 70.136 93.752C70.328 92.696 70.424 91.256 70.424 89.432V86.552H75.56V89.432C75.56 93.304 74.824 96.28 73.352 98.36C71.912 100.408 69.384 101.432 65.768 101.432ZM86.8711 62.12H92.1031L100.407 101H95.2711L93.4951 91.208H85.5751L83.7031 101H78.6151L86.8711 62.12ZM92.7751 87.32L89.5111 69.8L86.2951 87.32H92.7751ZM104.976 62.12H110.304L117.168 93.656L124.08 62.12H129.36L130.08 101H125.712L125.28 72.776L118.704 101H115.632L109.104 72.776L108.672 101H104.256L104.976 62.12ZM136.04 62.12H151.112V66.152H141.464V79.016H149.288V82.856H141.464V97.112H151.208V101H136.04V62.12ZM155.587 62.12H163.411C167.347 62.12 170.227 62.936 172.051 64.568C173.907 66.168 174.835 68.792 174.835 72.44C174.835 77.432 173.235 80.456 170.035 81.512L175.555 101H170.323L165.234 82.76H161.011V101H155.587V62.12ZM163.075 78.872C165.411 78.872 167.075 78.408 168.067 77.48C169.091 76.552 169.603 74.872 169.603 72.44C169.603 70.84 169.427 69.592 169.075 68.696C168.723 67.768 168.099 67.096 167.203 66.68C166.307 66.232 165.043 66.008 163.411 66.008H161.011V78.872H163.075ZM186.621 62.12H191.853L200.157 101H195.021L193.245 91.208H185.325L183.453 101H178.365L186.621 62.12ZM192.525 87.32L189.261 69.8L186.045 87.32H192.525ZM213.27 101.432C210.006 101.432 207.51 100.424 205.782 98.408C204.086 96.392 203.142 93.624 202.95 90.104L207.75 88.808C207.91 91.304 208.39 93.32 209.19 94.856C210.022 96.392 211.382 97.16 213.27 97.16C214.678 97.16 215.734 96.776 216.438 96.008C217.174 95.208 217.542 94.072 217.542 92.6C217.542 91 217.206 89.672 216.534 88.616C215.862 87.56 214.79 86.392 213.318 85.112L206.79 79.352C205.478 78.2 204.518 76.968 203.91 75.656C203.334 74.312 203.046 72.68 203.046 70.76C203.046 67.912 203.862 65.704 205.494 64.136C207.126 62.568 209.35 61.784 212.166 61.784C215.238 61.784 217.558 62.6 219.126 64.232C220.694 65.864 221.638 68.392 221.958 71.816L217.35 73.064C217.19 70.792 216.742 69.048 216.006 67.832C215.302 66.584 214.022 65.96 212.166 65.96C210.79 65.96 209.734 66.328 208.998 67.064C208.262 67.768 207.894 68.824 207.894 70.232C207.894 71.384 208.086 72.36 208.47 73.16C208.854 73.928 209.51 74.712 210.438 75.512L217.014 81.272C218.71 82.776 220.054 84.408 221.046 86.168C222.07 87.928 222.582 89.928 222.582 92.168C222.582 95.016 221.718 97.272 219.99 98.936C218.262 100.6 216.022 101.432 213.27 101.432Z" fill="black"/>
<path d="M110.592 33.68C110.4 35.136 110.304 36.264 110.304 37.064C110.304 37.864 110.552 38.264 111.048 38.264C111.544 38.264 112.128 37.896 112.8 37.16C113.488 36.424 114.128 35.416 114.72 34.136C115.312 32.856 115.672 31.56 115.8 30.248C115.8 28.92 115.12 27.408 113.76 25.712C114.08 25.024 114.496 24.408 115.008 23.864C115.52 23.304 115.952 22.92 116.304 22.712L116.832 22.376C117.424 22.376 117.928 22.808 118.344 23.672C118.776 24.52 118.992 25.464 118.992 26.504C118.992 28.296 118.472 30.36 117.432 32.696C116.392 35.032 115.096 37.048 113.544 38.744C111.992 40.44 110.56 41.288 109.248 41.288C108.4 41.288 107.736 40.984 107.256 40.376C106.792 39.752 106.56 39.008 106.56 38.144C106.56 37.28 106.664 35.864 106.872 33.896C105.384 33.752 104.152 33.248 103.176 32.384C102.216 31.504 101.736 30.432 101.736 29.168C101.736 27.888 102.328 26.704 103.512 25.616C104.712 24.512 106.08 23.96 107.616 23.96C109.968 23.96 111.144 25.424 111.144 28.352C111.144 29.088 111.088 29.84 110.976 30.608L110.808 32.024C111.608 31.832 112.248 31.6 112.728 31.328L112.992 31.184C113.328 31.52 113.504 32.032 113.52 32.72C112.528 33.184 111.552 33.504 110.592 33.68ZM107.4 28.376C107.4 27.544 107.312 26.952 107.136 26.6C106.96 26.232 106.608 26.048 106.08 26.048C105.568 26.048 104.96 26.352 104.256 26.96C103.568 27.552 103.224 28.296 103.224 29.192C103.224 30.072 103.592 30.816 104.328 31.424C105.08 32.016 105.984 32.312 107.04 32.312C107.28 30.52 107.4 29.208 107.4 28.376ZM123.602 31.856C123.602 32.528 123.386 33.688 122.954 35.336C122.522 36.968 122.306 38.04 122.306 38.552C122.306 39.048 122.378 39.296 122.522 39.296C122.618 39.296 122.986 39.144 123.626 38.84L123.914 38.696L124.322 39.536C124.178 39.664 123.986 39.824 123.746 40.016C123.506 40.208 123.058 40.472 122.402 40.808C121.746 41.128 121.138 41.288 120.578 41.288C120.018 41.288 119.578 41.12 119.258 40.784C118.938 40.432 118.778 39.968 118.778 39.392C118.778 38.8 118.978 37.76 119.378 36.272C119.778 34.768 119.978 33.792 119.978 33.344C119.978 32.672 119.77 32.04 119.354 31.448L119.138 31.16L119.162 30.848C120.01 30.608 121.386 30.488 123.29 30.488C123.498 30.728 123.602 31.184 123.602 31.856ZM120.866 27.872C120.546 27.552 120.386 27.128 120.386 26.6C120.386 26.072 120.602 25.608 121.034 25.208C121.482 24.808 121.994 24.608 122.57 24.608C123.146 24.608 123.594 24.768 123.914 25.088C124.234 25.408 124.394 25.832 124.394 26.36C124.394 26.872 124.162 27.328 123.698 27.728C123.25 28.128 122.746 28.328 122.186 28.328C121.626 28.328 121.186 28.176 120.866 27.872ZM125.821 41.072H125.365C125.365 40.32 125.589 38.88 126.037 36.752C126.501 34.624 126.733 33.416 126.733 33.128C126.733 32.6 126.509 32.04 126.061 31.448L125.845 31.16L125.869 30.848C126.733 30.608 128.117 30.488 130.021 30.488C130.229 30.76 130.341 31.256 130.357 31.976C131.749 30.904 132.925 30.368 133.885 30.368C134.461 30.368 134.917 30.568 135.253 30.968C135.605 31.368 135.781 31.872 135.781 32.48C135.781 33.072 135.597 34.104 135.229 35.576C134.861 37.048 134.677 38.04 134.677 38.552C134.677 39.048 134.741 39.296 134.869 39.296C134.965 39.296 135.301 39.144 135.877 38.84L136.165 38.696L136.597 39.536C136.453 39.664 136.261 39.824 136.021 40.016C135.781 40.208 135.333 40.472 134.677 40.808C134.037 41.128 133.461 41.288 132.949 41.288C131.781 41.288 131.197 40.624 131.197 39.296C131.197 38.736 131.373 37.704 131.725 36.2C132.093 34.696 132.277 33.728 132.277 33.296C132.277 32.864 132.141 32.648 131.869 32.648C131.405 32.648 130.837 32.848 130.165 33.248C130.117 33.52 129.957 34.24 129.685 35.408C129.125 37.92 128.845 39.696 128.845 40.736C128.285 40.96 127.277 41.072 125.821 41.072ZM144.873 30.656C144.841 31.056 144.705 31.52 144.465 32.048C143.857 31.984 143.281 31.952 142.737 31.952H142.305C141.569 35.52 141.201 37.744 141.201 38.624C141.201 39.088 141.297 39.32 141.489 39.32C141.697 39.32 142.233 39.12 143.097 38.72L143.529 39.512C142.105 40.696 140.785 41.288 139.569 41.288C139.009 41.288 138.545 41.112 138.177 40.76C137.825 40.408 137.649 39.944 137.649 39.368C137.649 38.776 137.713 38.112 137.841 37.376C137.985 36.64 138.177 35.744 138.417 34.688C138.657 33.616 138.833 32.752 138.945 32.096C138.353 32.144 137.913 32.192 137.625 32.24C137.593 32.048 137.577 31.792 137.577 31.472C137.577 31.136 137.601 30.864 137.649 30.656H139.161C139.289 29.792 139.353 28.976 139.353 28.208L139.329 27.464V27.392C140.577 26.96 141.753 26.744 142.857 26.744C142.921 27.064 142.953 27.464 142.953 27.944C142.953 28.424 142.817 29.328 142.545 30.656H144.873ZM151.591 31.064C151.623 31.032 151.711 30.824 151.855 30.44C152.607 30.44 153.615 30.664 154.879 31.112C154.479 32.44 154.159 33.832 153.919 35.288C153.679 36.728 153.559 37.76 153.559 38.384C153.559 38.992 153.623 39.296 153.751 39.296C153.847 39.296 154.199 39.144 154.807 38.84L155.095 38.696L155.527 39.536C155.383 39.664 155.191 39.824 154.951 40.016C154.727 40.208 154.295 40.472 153.655 40.808C153.015 41.128 152.439 41.288 151.927 41.288C150.935 41.288 150.359 40.84 150.199 39.944C149.175 40.84 148.247 41.288 147.415 41.288C146.599 41.288 145.903 40.968 145.327 40.328C144.767 39.688 144.487 38.68 144.487 37.304C144.487 35.16 144.927 33.472 145.807 32.24C146.687 30.992 147.751 30.368 148.999 30.368C149.895 30.368 150.759 30.6 151.591 31.064ZM148.855 39.248C149.239 39.248 149.671 39.096 150.151 38.792C150.263 36.536 150.639 34.304 151.279 32.096C150.799 31.888 150.391 31.784 150.055 31.784C149.479 31.784 148.983 32.352 148.567 33.488C148.167 34.608 147.967 35.848 147.967 37.208C147.967 38.568 148.263 39.248 148.855 39.248ZM162.138 45.224C161.546 45.624 160.978 45.912 160.434 46.088C159.89 46.28 159.362 46.376 158.85 46.376C158.338 46.376 157.922 46.232 157.602 45.944C157.282 45.656 157.122 45.24 157.122 44.696C157.122 44.168 157.466 43.664 158.154 43.184C158.842 42.704 159.522 42.376 160.194 42.2L161.226 41.96L161.586 40.04C160.658 40.744 159.762 41.096 158.898 41.096C158.05 41.096 157.354 40.768 156.81 40.112C156.282 39.456 156.018 38.408 156.018 36.968C156.018 35.08 156.442 33.512 157.29 32.264C158.138 31 159.258 30.368 160.65 30.368C161.434 30.368 162.21 30.56 162.978 30.944C163.794 30.656 164.674 30.512 165.618 30.512L166.122 30.536C166.17 30.728 166.194 31 166.194 31.352C166.194 32.76 165.69 35.92 164.682 40.832C164.506 41.84 164.186 42.72 163.722 43.472C163.258 44.24 162.73 44.824 162.138 45.224ZM161.73 31.784C161.042 31.784 160.498 32.344 160.098 33.464C159.698 34.568 159.498 35.8 159.498 37.16C159.498 38.504 159.802 39.176 160.41 39.176C160.81 39.176 161.282 39.024 161.826 38.72C162.274 36.032 162.594 33.816 162.786 32.072C162.338 31.88 161.986 31.784 161.73 31.784ZM158.202 44.648C158.202 44.952 158.378 45.104 158.73 45.104C159.098 45.104 159.498 44.896 159.93 44.48C160.362 44.08 160.706 43.584 160.962 42.992C160.434 43.056 159.842 43.248 159.186 43.568C158.53 43.904 158.202 44.264 158.202 44.648ZM166.937 36.848C166.937 34.848 167.537 33.272 168.737 32.12C169.953 30.952 171.329 30.368 172.865 30.368C173.809 30.368 174.585 30.6 175.193 31.064C175.801 31.528 176.105 32.152 176.105 32.936C176.105 33.704 175.905 34.352 175.505 34.88C175.121 35.408 174.649 35.816 174.089 36.104C172.953 36.664 171.913 37.016 170.969 37.16L170.393 37.232C170.505 38.736 171.121 39.488 172.241 39.488C172.625 39.488 173.033 39.392 173.465 39.2C173.897 39.008 174.233 38.816 174.473 38.624L174.833 38.336L175.409 39.104C175.281 39.28 175.025 39.512 174.641 39.8C174.257 40.088 173.897 40.328 173.561 40.52C172.633 41.032 171.617 41.288 170.513 41.288C169.409 41.288 168.537 40.896 167.896 40.112C167.257 39.328 166.937 38.24 166.937 36.848ZM170.369 36.056C171.185 35.912 171.833 35.568 172.312 35.024C172.793 34.48 173.033 33.776 173.033 32.912C173.033 32.048 172.777 31.616 172.265 31.616C171.657 31.616 171.185 32.136 170.849 33.176C170.529 34.2 170.369 35.16 170.369 36.056Z" fill="black"/>
</svg>
